<?xml version="1.0" encoding="utf-8"?>
<!-- Generator: Adobe Illustrator 19.2.0, SVG Export Plug-In . SVG Version: 6.00 Build 0)  -->
<svg version="1.1" id="Layer_1" xmlns="http://www.w3.org/2000/svg" xmlns:xlink="http://www.w3.org/1999/xlink" x="0px" y="0px"
	 viewBox="0 0 301.5 353" style="enable-background:new 0 0 301.5 353;" xml:space="preserve">
<style type="text/css">
	.st0{fill:#E44F26;}
	.st1{fill:#F1662A;}
	.st2{fill:#EBEBEB;}
	.st3{fill:#010101;}
	.st4{fill:#FFFFFF;}
	.st5{fill:#131313;}
	.st6{fill:#1572B6;}
	.st7{fill:#33A9DC;}
</style>
<g>
	<polygon class="st0" points="-372.6,319.3 -399.7,15.6 -102.2,15.6 -129.3,319.2 -251.1,353 	"/>
	<polygon class="st1" points="-251,327.2 -152.5,299.9 -129.4,40.5 -251,40.5 	"/>
	<polygon class="st2" points="-251,153.1 -300.2,153.1 -303.6,114.9 -251,114.9 -251,77.7 -251.1,77.7 -344.3,77.7 -343.4,87.7 
		-334.3,190.3 -251,190.3 	"/>
	<polygon class="st2" points="-251,249.8 -251.1,249.8 -292.6,238.6 -295.2,208.9 -315.4,208.9 -332.6,208.9 -327.4,267.4 
		-251.1,288.6 -251,288.5 	"/>
	<path class="st3" d="M-372-66.9h18.9v18.7h17.3v-18.7h18.9v56.6h-18.9v-19h-17.3v19H-372V-66.9L-372-66.9z"/>
	<path class="st3" d="M-292-48.1h-16.7v-18.8h52.3v18.8H-273v37.8H-292L-292-48.1L-292-48.1z"/>
	<path class="st3" d="M-248.1-66.9h19.7l12.1,19.9l12.1-19.9h19.7v56.6h-18.8v-28.1l-13,20.1h-0.3l-13-20.1v28.1h-18.5L-248.1-66.9
		L-248.1-66.9z"/>
	<path class="st3" d="M-174.9-66.9h18.9V-29h26.6v18.7h-45.5L-174.9-66.9L-174.9-66.9z"/>
	<polygon class="st4" points="-251.1,153.1 -251.1,190.3 -205.2,190.3 -209.6,238.6 -251.1,249.8 -251.1,288.6 -174.8,267.4 
		-174.2,261.1 -165.4,163.1 -164.5,153.1 -174.6,153.1 	"/>
	<polygon class="st4" points="-251.1,77.7 -251.1,100.8 -251.1,114.9 -251.1,114.9 -161.3,114.9 -161.3,114.9 -161.1,114.9 
		-160.4,106.6 -158.7,87.7 -157.8,77.7 	"/>
</g>
<g>
	<path class="st5" d="M237.2-51.3h-24.7l25.7,27.9v13.3h-52.9v-15.5h25.7l-25.7-27.9v-13.3h51.9V-51.3L237.2-51.3z M174.8-51.3
		h-24.7l25.7,27.9v13.3h-52.9v-15.5h25.7l-25.7-27.9v-13.3h51.9L174.8-51.3L174.8-51.3z M113-50.7H86.4v24.3H113v16.2H67.4v-56.7
		H113V-50.7z"/>
</g>
<polygon class="st6" points="31.1,319.3 4.1,15.7 301.5,15.7 274.4,319.2 152.6,353 "/>
<polygon class="st7" points="152.8,327.2 251.2,299.9 274.4,40.5 152.8,40.5 "/>
<g>
	<polygon class="st4" points="152.8,150.5 202.1,150.5 205.5,112.4 152.8,112.4 152.8,75.1 152.9,75.1 246.2,75.1 245.3,85.1 
		236.1,187.7 152.8,187.7 	"/>
	<polygon class="st2" points="153,247.2 152.9,247.2 111.4,236.1 108.7,206.4 88.6,206.4 71.4,206.4 76.6,264.8 152.8,286 
		153,285.9 	"/>
	<polygon class="st4" points="198.9,186.2 194.4,236 152.9,247.2 152.9,286 229.2,264.8 229.8,258.5 236.3,186.2 	"/>
	<polygon class="st2" points="152.9,75.1 152.9,98.3 152.9,112.3 152.9,112.4 63.1,112.4 63.1,112.4 63,112.4 62.2,104 60.5,85.1 
		59.6,75.1 	"/>
	<polygon class="st2" points="152.8,150.5 152.8,173.6 152.8,187.6 152.8,187.7 112,187.7 112,187.7 111.8,187.7 111.1,179.4 
		109.4,160.5 108.5,150.5 	"/>
</g>
</svg>
