<?xml version="1.0" encoding="utf-8"?>
<!-- Generator: Adobe Illustrator 19.2.0, SVG Export Plug-In . SVG Version: 6.00 Build 0)  -->
<svg version="1.1" id="Layer_1" xmlns="http://www.w3.org/2000/svg" xmlns:xlink="http://www.w3.org/1999/xlink" x="0px" y="0px"
	 viewBox="0 0 306 353" style="enable-background:new 0 0 306 353;" xml:space="preserve">
<style type="text/css">
	.st0{fill:#E44F26;}
	.st1{fill:#F1662A;}
	.st2{fill:#EBEBEB;}
	.st3{fill:#010101;}
	.st4{fill:#FFFFFF;}
	.st5{fill:#131313;}
	.st6{fill:#1572B6;}
	.st7{fill:#33A9DC;}
</style>
<g>
	<polygon class="st0" points="31.4,319.3 4.3,15.6 301.8,15.6 274.7,319.2 152.9,353 	"/>
	<polygon class="st1" points="153,327.2 251.5,299.9 274.6,40.5 153,40.5 	"/>
	<polygon class="st2" points="153,153.1 103.8,153.1 100.4,114.9 153,114.9 153,77.7 152.9,77.7 59.7,77.7 60.6,87.7 69.7,190.3 
		153,190.3 	"/>
	<polygon class="st2" points="153,249.8 152.9,249.8 111.4,238.6 108.8,208.9 88.6,208.9 71.4,208.9 76.6,267.4 152.9,288.6 
		153,288.5 	"/>
	<path class="st3" d="M32-66.9h18.9v18.7h17.3v-18.7h18.9v56.6H68.2v-19H50.9v19H32V-66.9L32-66.9z"/>
	<path class="st3" d="M112-48.1H95.4v-18.8h52.3v18.8H131v37.8H112L112-48.1L112-48.1z"/>
	<path class="st3" d="M155.9-66.9h19.7L187.8-47l12.1-19.9h19.7v56.6h-18.8v-28.1l-13,20.1h-0.3l-13-20.1v28.1h-18.5L155.9-66.9
		L155.9-66.9z"/>
	<path class="st3" d="M229.1-66.9H248V-29h26.6v18.7h-45.5L229.1-66.9L229.1-66.9z"/>
	<polygon class="st4" points="152.9,153.1 152.9,190.3 198.8,190.3 194.4,238.6 152.9,249.8 152.9,288.6 229.2,267.4 229.8,261.1 
		238.6,163.1 239.5,153.1 229.4,153.1 	"/>
	<polygon class="st4" points="152.9,77.7 152.9,100.8 152.9,114.9 152.9,114.9 242.7,114.9 242.7,114.9 242.9,114.9 243.6,106.6 
		245.3,87.7 246.2,77.7 	"/>
</g>
<g>
	<path class="st5" d="M641.2-51.3h-24.7l25.7,27.9v13.3h-52.9v-15.5h25.7l-25.7-27.9v-13.3h51.9V-51.3L641.2-51.3z M578.8-51.3
		h-24.7l25.7,27.9v13.3h-52.9v-15.5h25.7l-25.7-27.9v-13.3h51.9L578.8-51.3L578.8-51.3z M517-50.7h-26.6v24.3H517v16.2h-45.6v-56.7
		H517V-50.7z"/>
</g>
<polygon class="st6" points="435.1,319.3 408.1,15.7 705.5,15.7 678.4,319.2 556.6,353 "/>
<polygon class="st7" points="556.8,327.2 655.2,299.9 678.4,40.5 556.8,40.5 "/>
<g>
	<polygon class="st4" points="556.8,150.5 606.1,150.5 609.5,112.4 556.8,112.4 556.8,75.1 556.9,75.1 650.2,75.1 649.3,85.1 
		640.1,187.7 556.8,187.7 	"/>
	<polygon class="st2" points="557,247.2 556.9,247.2 515.4,236.1 512.7,206.4 492.6,206.4 475.4,206.4 480.6,264.8 556.8,286 
		557,285.9 	"/>
	<polygon class="st4" points="602.9,186.2 598.4,236 556.9,247.2 556.9,286 633.2,264.8 633.8,258.5 640.3,186.2 	"/>
	<polygon class="st2" points="556.9,75.1 556.9,98.3 556.9,112.3 556.9,112.4 467.1,112.4 467.1,112.4 467,112.4 466.2,104 
		464.5,85.1 463.6,75.1 	"/>
	<polygon class="st2" points="556.8,150.5 556.8,173.6 556.8,187.6 556.8,187.7 516,187.7 516,187.7 515.8,187.7 515.1,179.4 
		513.4,160.5 512.5,150.5 	"/>
</g>
</svg>
